<?xml version="1.0" encoding="UTF-8" standalone="no"?>
<!-- Created with Inkscape (http://www.inkscape.org/) -->

<svg
   width="210mm"
   height="297mm"
   viewBox="0 0 210 297"
   version="1.1"
   id="svg5"
   inkscape:version="1.1.2 (b8e25be833, 2022-02-05)"
   sodipodi:docname="logo1.svg"
   xmlns:inkscape="http://www.inkscape.org/namespaces/inkscape"
   xmlns:sodipodi="http://sodipodi.sourceforge.net/DTD/sodipodi-0.dtd"
   xmlns="http://www.w3.org/2000/svg"
   xmlns:svg="http://www.w3.org/2000/svg">
  <sodipodi:namedview
     id="namedview7"
     pagecolor="#505050"
     bordercolor="#ffffff"
     borderopacity="1"
     inkscape:pageshadow="0"
     inkscape:pageopacity="0"
     inkscape:pagecheckerboard="1"
     inkscape:document-units="mm"
     showgrid="false"
     showguides="true"
     inkscape:zoom="1.8116734"
     inkscape:cx="206.99095"
     inkscape:cy="420.05364"
     inkscape:window-width="1920"
     inkscape:window-height="1009"
     inkscape:window-x="-8"
     inkscape:window-y="-8"
     inkscape:window-maximized="1"
     inkscape:current-layer="layer1">
    <inkscape:grid
       type="xygrid"
       id="grid3180" />
    <sodipodi:guide
       position="0.58417446,166.43701"
       orientation="1,0"
       id="guide8808" />
  </sodipodi:namedview>
  <defs
     id="defs2">
    <inkscape:perspective
       sodipodi:type="inkscape:persp3d"
       inkscape:vp_x="0 : 148.5 : 1"
       inkscape:vp_y="0 : 1000 : 0"
       inkscape:vp_z="210 : 148.5 : 1"
       inkscape:persp3d-origin="105 : 99 : 1"
       id="perspective30311" />
    <rect
       x="312.97031"
       y="232.38184"
       width="259.98063"
       height="44.158069"
       id="rect11415" />
  </defs>
  <g
     inkscape:label="Warstwa 1"
     inkscape:groupmode="layer"
     id="layer1">
    <path
       id="path20374"
       style="fill:#ffffff;stroke-width:1.5293"
       transform="rotate(45.645773)"
       d="m 181.86887,14.756016 a 34.174202,34.393269 0 0 1 -34.1742,34.393268 34.174202,34.393269 0 0 1 -34.1742,-34.393268 34.174202,34.393269 0 0 1 34.1742,-34.393269 34.174202,34.393269 0 0 1 34.1742,34.393269 z" />
    <text
       xml:space="preserve"
       transform="scale(0.26458333)"
       id="text11413"
       style="font-style:normal;font-weight:normal;font-size:40px;line-height:1.25;font-family:sans-serif;white-space:pre;shape-inside:url(#rect11415);fill:#000000;fill-opacity:1;stroke:none" />
    <g
       id="g33550">
      <path
         id="path3598"
         style="fill:#000080;stroke-width:1.24055"
         d="M 92.736357,81.609169 C 73.729799,81.609121 58.32191,97.02603 58.321892,116.04378 c 6.11e-4,6.5862 1.888909,13.03407 5.440968,18.57898 L 85.325871,92.840969 c -0.01629,0.120045 -0.617368,16.735881 -0.629524,16.854161 -0.149523,5.132 5.864667,6.39182 14.047183,4.67031 L 122.81474,99.328062 C 116.8058,88.371809 105.30755,81.581613 92.736357,81.609169 Z M 98.74353,114.36544 64.531982,135.737 c 6.430282,9.22885 16.960713,14.73271 28.204375,14.74137 19.006543,4e-5 34.414423,-15.41685 34.414453,-34.43459 -0.006,-4.72457 -0.98293,-9.39744 -2.871,-13.72787 -8.21824,6.16783 -17.83636,10.42954 -25.53628,12.04953 z"
         sodipodi:nodetypes="cccccccccccccc" />
      <g
         id="g33543">
        <path
           id="path21432"
           style="fill:#d40055;fill-opacity:0;stroke:#ffc420;stroke-width:1.16235"
           transform="matrix(0.53442518,0.84521579,-0.8638769,-0.503703,0,0)"
           d="m 150.90237,-14.389995 a 15.199278,14.264732 0 0 1 -15.19928,14.26473274 15.199278,14.264732 0 0 1 -15.19927,-14.26473274 15.199278,14.264732 0 0 1 15.19927,-14.264732 15.199278,14.264732 0 0 1 15.19928,14.264732 z" />
        <path
           id="path20132"
           style="fill:#ffff00;fill-opacity:0;stroke-width:0.725843"
           transform="scale(-1)"
           d="m -69.609604,-115.00462 a 23.586044,23.586044 0 0 1 -23.586044,23.586041 23.586044,23.586044 0 0 1 -23.586042,-23.586041 23.586044,23.586044 0 0 1 23.586042,-23.58605 23.586044,23.586044 0 0 1 23.586044,23.58605 z" />
        <path
           id="rect31435"
           style="fill:#ffffff;stroke-width:1.04118"
           d="m 76.470521,109.94039 1.120256,-2.15001 13.199112,11.55575 -2.250524,1.39279 z"
           sodipodi:nodetypes="ccccc" />
      </g>
    </g>
    <g
       aria-label="Patryk Spyrka"
       transform="matrix(1.0416259,0.09509084,-0.0890678,1.0768467,6.6688635,-17.071234)"
       id="text12543"
       style="font-size:10.5833px;line-height:1.25;font-family:'Berlin Sans FB Demi';-inkscape-font-specification:'Berlin Sans FB Demi';fill:#d40000;stroke-width:0.264583">
      <path
         d="m 65.886015,107.73433 q 1.23738,0.18112 1.909301,0.94275 0.711203,0.81439 0.532329,2.03643 -0.02994,0.20453 -0.111012,0.6157 -0.08544,0.40531 -0.115378,0.60983 -0.03218,0.21987 0.157004,0.24756 0.235205,0.0344 0.707237,0.0565 0.472031,0.0221 0.702123,0.0558 0.117602,0.0172 0.101885,0.12459 -0.04565,0.31191 -0.157415,0.93272 -0.106648,0.62155 -0.152302,0.93346 -0.0217,0.14828 -0.169985,0.12657 -0.567559,-0.0831 -1.700431,-0.26456 -1.137237,-0.18736 -1.704796,-0.27043 -1.605527,-0.23501 -3.394881,-0.35591 l -0.07233,-0.005 q -0.09865,-0.004 -0.09515,-0.17061 0.0072,-0.40631 0.206328,-1.76641 0.117503,-0.80276 0.245729,-1.53606 0.21317,-1.20658 1.047758,-1.8417 0.857286,-0.64748 2.063988,-0.47085 z m -0.216813,2.05212 q -1.191362,-0.17438 -1.361255,0.9863 -0.119749,0.8181 -0.0337,0.87248 0.06123,0.0455 1.175897,0.20868 0.158508,0.0232 0.471906,0.0586 0.309034,0.0296 0.467541,0.0528 0.102263,0.015 0.23698,-0.90539 0.162409,-1.10956 -0.957369,-1.27346 z"
         id="path61323" />
      <path
         d="m 70.38127,101.92906 q 0.362538,0.164 1.097367,0.44537 0.734829,0.28137 1.092659,0.44324 0.188332,0.0852 0.127911,0.25637 -0.22173,0.603 -0.562511,1.35633 -0.04047,0.0894 -0.323749,0.001 -0.28586,-0.0953 -0.309737,-0.055 0.0018,0.0462 0.03531,0.13508 0.293491,0.76801 0.02087,1.37067 -0.415326,0.91811 -1.413027,1.19277 -0.935709,0.263 -1.877367,-0.16297 -1.087615,-0.492 -1.485249,-1.38085 -0.410526,-0.92304 0.07083,-1.98711 0.334391,-0.73921 1.046121,-0.93337 0.03206,-0.008 0.03845,-0.0223 0.01917,-0.0424 -0.1834,-0.1964 -0.205148,-0.16087 -0.17107,-0.2362 0.07881,-0.1742 0.399187,-0.61914 0.305023,-0.42352 0.462524,-0.59616 0.0602,-0.0579 0.107281,-0.0365 0.01883,0.009 0.09248,0.0589 0.784045,0.53617 1.735119,0.9664 z m -0.657571,1.52885 q -0.400204,-0.18104 -0.774173,-0.0439 -0.376548,0.13026 -0.559718,0.53518 -0.183169,0.40491 -0.0371,0.77159 0.146073,0.36668 0.550986,0.54985 0.381371,0.17252 0.773725,0.0324 0.392354,-0.14013 0.562744,-0.51679 0.18104,-0.40021 0.0371,-0.7716 -0.148651,-0.37352 -0.553564,-0.55669 z"
         id="path61325" />
      <path
         d="m 74.212453,98.474087 q 0.124189,0.0928 0.351958,0.314601 0.230864,0.217664 0.350912,0.307367 0.115909,0.08661 0.130466,0.136194 0.01456,0.04958 -0.0069,0.207751 -0.105115,0.75363 -0.590752,1.40355 -0.893942,1.19634 -1.808795,0.51274 -0.273213,-0.20416 -0.804175,-0.63316 -0.535101,-0.4321 -0.808314,-0.63625 -0.182143,-0.136102 -0.339898,0.075 -0.01237,0.0166 -0.04021,0.0538 -0.0237,0.0404 -0.03607,0.0569 -0.117543,0.15731 -0.229312,0.0738 -0.06623,-0.0495 -0.196654,-0.15985 -0.127327,-0.11449 -0.193561,-0.16399 -0.08693,-0.06495 -0.274214,-0.185543 -0.184189,-0.12473 -0.271121,-0.189688 -0.08279,-0.06186 0.106895,-0.332985 0.107217,-0.152119 0.03784,-0.223309 -0.138745,-0.142381 -0.484379,-0.387746 -0.546382,-0.382468 -0.521544,-0.363909 -0.480194,-0.358814 -0.412143,-0.449885 0.08352,-0.11177 0.287854,-0.281631 0.230128,-0.195745 0.306459,-0.28063 0.186731,-0.189467 0.555009,-0.578728 0.08561,-0.0973 0.147704,-0.05091 0.165584,0.123729 0.479239,0.403258 0.316749,0.275389 0.486473,0.402211 0.20284,0.151568 0.292544,0.03152 0.108263,-0.144886 0.315463,-0.448078 0.2072,-0.303191 0.318557,-0.452217 0.06805,-0.09107 0.130145,-0.04467 0.09521,0.07115 0.270166,0.234131 0.174956,0.162987 0.270166,0.234131 0.09935,0.07424 0.292866,0.212386 0.193515,0.138149 0.292865,0.212386 0.08693,0.06496 -0.0028,0.185007 -0.06186,0.08279 -0.211386,0.27426 -0.15366,0.188375 -0.215525,0.271167 l -0.231992,0.31047 q -0.0464,0.06209 0.135744,0.198196 0.09935,0.07424 0.293912,0.219619 0.201794,0.144336 0.297005,0.21548 0.347726,0.259831 0.538965,0.280162 0.26152,0.02124 0.505885,-0.305789 0.07733,-0.10349 0.174084,-0.327938 0.09571,-0.23168 0.154477,-0.310332 0.06496,-0.08693 0.156029,-0.01888 z"
         id="path61327" />
      <path
         d="m 76.078036,94.29329 q 0.138803,0.14612 -0.0223,0.299159 -0.07119,0.06762 -0.216932,0.191814 -0.145557,0.116886 -0.212997,0.180949 -0.310973,0.295401 -0.330838,0.499586 -0.01986,0.204185 0.261301,0.500172 0.153039,0.161106 0.469983,0.487254 0.317131,0.318842 0.47017,0.479948 0.103213,0.108653 0.324624,0.311724 0.217853,0.199324 0.317507,0.30423 0.08542,0.08992 -0.02755,0.218609 -0.165604,0.185821 -0.536524,0.538168 -0.355933,0.33811 -0.590847,0.518496 -0.137876,0.102462 -0.241089,-0.0062 -0.284724,-0.299733 -0.846867,-0.899012 -0.565702,-0.603025 -0.850426,-0.902758 -0.836378,-0.880467 -1.538461,-1.296921 -0.03952,-0.0266 -0.06088,-0.04908 -0.05339,-0.0562 -0.01498,-0.128319 0.184712,-0.218228 0.524914,-0.655434 0.481643,-0.678477 0.500376,-0.696272 0.06744,-0.06406 0.310394,0.154181 0.242953,0.218245 0.29166,0.171977 -0.05245,0.04983 0.122156,-0.486669 0.17105,-0.540242 0.504503,-0.856998 0.209813,-0.199307 0.295231,-0.109387 0.103212,0.108653 0.269362,0.328581 0.180386,0.234914 0.265616,0.33214 0.103212,0.108653 0.277794,0.284934 0.217477,0.213935 0.285099,0.285122 z"
         id="path61329" />
      <path
         d="m 81.125404,90.400006 q 0.527638,0.852435 0.589141,1.06962 0.07008,0.260496 0.02228,2.186256 -0.0073,0.302339 -0.107618,1.4462 -0.112839,1.26103 -0.170802,1.36376 -0.06466,0.131185 -1.308158,0.900883 -0.188942,0.11695 -0.282049,0.113807 -0.168633,-0.144796 -0.408821,-0.336464 -0.165496,-0.110273 -0.333712,-0.22494 -0.24249,-0.165933 -0.288727,-0.240631 -0.05168,-0.08349 0.02302,-0.129722 1.22153,-0.756099 0.876117,-1.314136 -0.02992,-0.04833 -1.138819,-0.504514 -1.14447,-0.464551 -1.344695,-0.650567 -0.114026,-0.105668 -0.598147,-0.887798 -0.09791,-0.158184 -0.284948,-0.479991 -0.189756,-0.326201 -0.287669,-0.484384 -0.07071,-0.114244 0.07429,-0.203997 0.224093,-0.138709 0.684834,-0.405664 0.465134,-0.269676 0.689228,-0.408384 0.09227,-0.05712 0.176587,0.0791 0.07615,0.123032 0.217999,0.381648 0.139126,0.254223 0.21528,0.377255 0.342692,0.553643 0.482658,0.740493 0.108375,0.145631 0.617211,0.408032 0.532898,0.271818 0.651536,0.198384 0.101062,-0.06256 0.07619,-0.642754 -0.02885,-0.54735 -0.0983,-0.698837 -0.1954,-0.413869 -0.475538,-0.86645 -0.07343,-0.118638 -0.244992,-0.346708 -0.171558,-0.228071 -0.247712,-0.351102 -0.05168,-0.08349 0.0406,-0.140602 0.224094,-0.138709 0.657008,-0.430982 0.437308,-0.294994 0.661401,-0.433703 0.114244,-0.07071 0.224504,0.01905 0.186626,0.164047 0.640829,0.897843 z"
         id="path61331" />
      <path
         d="m 88.149863,88.345673 q 0.33484,1.091856 -0.563016,1.988796 -0.08366,0.07971 -0.06699,0.134054 0.02576,0.08399 0.674615,0.560649 0.647343,0.47172 0.656434,0.501363 0.04091,0.133394 -1.268332,0.534899 -0.503933,0.154541 -0.622375,0.05033 -0.299133,-0.27041 -0.908467,-0.759192 -0.03379,-0.02207 -0.910506,0.203553 0.04697,0.153157 0.154936,0.487597 0.107969,0.334441 0.157967,0.497478 0.04545,0.148216 -0.09328,0.206976 -0.0859,0.03715 -0.777573,0.249269 -0.597804,0.183328 -0.702675,0.193868 -0.14097,0.01621 -0.195514,-0.161653 l -0.927248,-3.023602 q -0.186359,-0.607685 -0.602027,-1.804478 -0.415667,-1.196793 -0.600511,-1.799537 -0.03636,-0.118573 0.09552,-0.164421 0.261848,-0.0803 0.782513,-0.250784 0.135305,-0.0523 0.46105,-0.206252 0.287736,-0.136887 0.460655,-0.189916 0.07905,-0.02424 0.122986,0.119034 0.05757,0.18774 0.126414,0.517964 0.08056,0.386086 0.118047,0.525936 0.281285,1.075849 0.460068,1.658831 0.04242,0.138335 0.07852,0.13267 0.03537,-0.04328 0.08524,-0.145054 0.437728,-0.863936 1.356666,-1.145747 0.864592,-0.265145 1.494675,-0.02596 0.693125,0.268499 0.952209,1.113329 z m -1.862907,0.922634 q -0.183328,-0.597804 -0.86018,-0.390233 -0.301372,0.09242 -0.572574,0.424228 -0.291358,0.354204 -0.203481,0.640755 0.125754,0.410064 0.265143,0.459205 0.107111,0.03201 0.586342,-0.114952 1.002927,-0.307567 0.78475,-1.019003 z"
         id="path61333" />
      <path
         d="m 96.092461,89.139015 q -0.04353,1.048125 -0.957528,1.760116 -0.801925,0.62872 -1.919513,0.763327 -0.04152,0.0034 -0.06734,0.0024 -0.118753,-0.0049 -0.496622,-0.744717 -0.377655,-0.744949 -0.371007,-0.905007 0.0024,-0.05679 0.08045,-0.06907 0.755737,-0.139291 1.003338,-0.247965 0.548121,-0.246184 0.569994,-0.772828 0.01394,-0.335606 -0.320002,-0.763242 -0.580091,-0.727496 -0.628506,-0.807088 -0.333957,-0.551767 -0.306937,-1.202327 0.03924,-0.944861 0.937766,-1.533365 0.733963,-0.486724 1.778194,-0.598517 0.05701,-0.0028 0.08799,-0.0015 0.07745,0.0032 0.118769,0.129063 0.118589,0.382487 0.568132,1.389026 0.0142,0.03162 0.01335,0.05228 -0.0036,0.08777 -0.09658,0.08391 -0.04131,-0.0017 -0.138762,-0.02128 -0.09746,-0.01956 -0.149089,-0.02171 -0.371748,-0.01544 -0.657636,0.143365 -0.343756,0.182262 -0.358338,0.533358 -0.01308,0.314954 0.339583,0.789916 0.621413,0.853342 0.650676,0.895935 0.342997,0.583174 0.319623,1.14596 z"
         id="path61335" />
      <path
         d="m 102.99603,90.657355 q -0.29439,1.065969 -1.11598,1.594982 -0.84839,0.548417 -1.899419,0.258158 -0.383549,-0.105924 -0.769618,-0.416265 -0.386068,-0.31034 -0.346218,-0.299335 -0.06476,-0.01788 -0.106025,0.131552 -0.07016,0.254039 -0.185566,0.768996 -0.116785,0.519938 -0.186943,0.773977 -0.04402,0.159398 -0.208399,0.114002 l -1.017533,-0.275649 q -0.3437,-0.09492 -0.436445,-0.147338 -0.139805,-0.07614 -0.09854,-0.225572 l 1.069203,-3.832745 q 0.320524,-1.160611 0.366285,-2.005744 0.0038,-0.05256 0.01342,-0.08743 0.02063,-0.07472 0.08729,-0.08312 0.2149,-0.02107 0.786214,0.04557 0.55637,0.06251 0.795466,0.128544 0.194265,0.05365 0.147638,0.319549 -0.04027,0.262293 -4.21e-4,0.273298 -0.04981,-0.01376 0.497687,-0.152054 0.55385,-0.141903 0.94238,-0.0346 1.08091,0.298514 1.53175,1.189653 0.43778,0.860731 0.13377,1.961568 z m -1.84526,-0.520324 q 0.11005,-0.398493 -0.0515,-0.764769 -0.17734,-0.386722 -0.56587,-0.494022 -0.39849,-0.110051 -0.724251,0.137732 -0.28762,0.226149 -0.401798,0.639586 -0.116929,0.423399 0.02521,0.762872 0.1502,0.368506 0.563637,0.482684 0.876685,0.242112 1.154565,-0.764083 z"
         id="path61337" />
      <path
         d="m 109.19047,92.754534 q -0.50381,0.866733 -0.66649,1.023214 -0.19686,0.184431 -1.91851,1.04858 -0.27022,0.135815 -1.32668,0.585675 -1.16575,0.493921 -1.28367,0.491127 -0.14617,0.0047 -1.41053,-0.730241 -0.19211,-0.111668 -0.23316,-0.195299 0.0484,-0.216936 0.10447,-0.519065 0.0194,-0.197921 0.0414,-0.400309 0.0323,-0.292049 0.0764,-0.368 0.0493,-0.08489 0.1253,-0.04074 1.24202,0.721946 1.57183,0.154548 0.0286,-0.04914 -0.0908,-1.242254 -0.12874,-1.228433 -0.0588,-1.492643 0.0396,-0.150338 0.50183,-0.945589 0.0935,-0.160837 0.2894,-0.477317 0.19851,-0.320949 0.292,-0.481786 0.0675,-0.11616 0.21495,-0.03046 0.22786,0.132443 0.68024,0.413329 0.45685,0.283484 0.6847,0.415927 0.0938,0.05454 0.0133,0.193034 -0.0727,0.125096 -0.23414,0.371964 -0.15883,0.2424 -0.23155,0.367496 -0.32721,0.56293 -0.4262,0.774364 -0.0775,0.16416 -0.0695,0.736617 0.011,0.598118 0.13159,0.668235 0.10276,0.05973 0.60298,-0.235275 0.46937,-0.283052 0.57034,-0.415631 0.27321,-0.367188 0.54069,-0.827361 0.0701,-0.120628 0.19061,-0.379336 0.12049,-0.258709 0.19321,-0.383804 0.0493,-0.08489 0.14316,-0.03035 0.22785,0.132443 0.68948,0.376862 0.46609,0.247016 0.69395,0.379459 0.11616,0.06752 0.0888,0.207053 -0.0569,0.241871 -0.49059,0.987977 z"
         id="path61339" />
      <path
         d="m 112.48528,96.300341 q -0.13473,0.149888 -0.29999,0.0013 -0.073,-0.06564 -0.20831,-0.201138 -0.128,-0.135891 -0.19718,-0.198072 -0.31899,-0.286722 -0.52411,-0.29043 -0.20511,-0.0037 -0.47802,0.299912 -0.14854,0.165261 -0.44869,0.506926 -0.29285,0.341276 -0.4414,0.506538 -0.10018,0.111455 -0.28516,0.348184 -0.18153,0.232886 -0.27826,0.340498 -0.0829,0.09224 -0.2201,-0.01023 -0.1983,-0.150442 -0.57878,-0.492436 -0.36512,-0.328175 -0.56346,-0.548141 -0.11301,-0.129371 -0.0128,-0.240826 0.27636,-0.307464 0.82947,-0.915094 0.55656,-0.611473 0.83291,-0.918937 0.81181,-0.903174 1.17163,-1.635898 0.0234,-0.0415 0.0441,-0.06456 0.0518,-0.05765 0.12674,-0.02505 0.2321,0.166936 0.69477,0.471618 0.71433,0.426666 0.73354,0.443939 0.0692,0.06218 -0.12923,0.32158 -0.19842,0.2594 -0.14846,0.304309 -0.0538,-0.04836 0.49479,0.08342 0.55204,0.127935 0.89409,0.435384 0.21523,0.193451 0.13232,0.28569 -0.10018,0.111455 -0.30633,0.294423 -0.21996,0.198341 -0.31017,0.290969 -0.10018,0.111456 -0.26215,0.299389 -0.19613,0.233663 -0.26176,0.306686 z"
         id="path61341" />
      <path
         d="m 116.90109,101.80899 q -0.92989,0.66299 -2.06477,0.0949 -0.10207,-0.0541 -0.14836,-0.0211 -0.0715,0.051 -0.31849,0.81731 -0.24276,0.76331 -0.26801,0.78131 -0.1136,0.081 -0.90859,-1.03404 -0.306,-0.42918 -0.2446,-0.57451 0.16192,-0.3693 0.43288,-1.10195 0.0102,-0.039 -0.48109,-0.799381 -0.13043,0.093 -0.41356,0.301201 -0.28312,0.20821 -0.42197,0.30721 -0.12623,0.09 -0.22585,-0.023 -0.0624,-0.0697 -0.48241,-0.65881 -0.363,-0.50913 -0.40617,-0.605283 -0.06,-0.128608 0.0915,-0.236606 l 2.5751,-1.835978 q 0.51754,-0.368996 1.52142,-1.141856 1.00389,-0.772861 1.51722,-1.138856 0.10099,-0.072 0.1862,0.03861 0.15899,0.223007 0.48541,0.663021 0.0924,0.111815 0.34148,0.372146 0.22087,0.229669 0.32587,0.376938 0.048,0.06732 -0.074,0.154321 -0.1599,0.113999 -0.45139,0.283751 -0.34079,0.198543 -0.4616,0.278334 -0.93165,0.607124 -1.42816,0.961119 -0.11782,0.084 -0.10102,0.116453 0.0522,0.01987 0.16456,0.03498 0.95804,0.142004 1.51603,0.924632 0.52499,0.736345 0.49738,1.409731 -0.0355,0.74247 -0.75501,1.25546 z m -1.46448,-1.47545 q 0.50913,-0.362997 0.0981,-0.939449 -0.18299,-0.256669 -0.58355,-0.409 -0.42817,-0.164371 -0.67221,0.0096 -0.34924,0.248997 -0.35177,0.396773 0.004,0.111738 0.2945,0.519883 0.60899,0.854156 1.2149,0.422166 z"
         id="path61343" />
      <path
         d="m 118.63691,108.34841 q -0.37351,0.13718 -1.0948,0.45164 -0.72128,0.31447 -1.08994,0.44987 -0.19403,0.0713 -0.27094,-0.0932 -0.26458,-0.58546 -0.54964,-1.36159 -0.0339,-0.0922 0.23018,-0.22768 0.27065,-0.13243 0.25947,-0.17787 -0.0337,-0.0317 -0.11988,-0.0716 -0.74768,-0.34197 -0.97572,-0.96287 -0.34742,-0.94591 0.17156,-1.84118 0.48294,-0.84349 1.4531,-1.19982 1.12053,-0.41155 2.0272,-0.0564 0.93982,0.37048 1.34247,1.46677 0.27971,0.76157 -0.0918,1.39897 -0.0171,0.0283 -0.0118,0.0429 0.016,0.0437 0.26848,0.0115 0.25906,-0.0291 0.28757,0.0485 0.0659,0.17948 0.14934,0.72137 0.0794,0.51586 0.0881,0.74939 -0.002,0.0835 -0.0509,0.10127 -0.0194,0.007 -0.10721,0.0229 -0.93501,0.16724 -1.91487,0.52713 z m -0.60278,-1.55127 q 0.41232,-0.15143 0.58291,-0.51137 0.17721,-0.35686 0.024,-0.77403 -0.15322,-0.41717 -0.51444,-0.57627 -0.36122,-0.1591 -0.77839,-0.006 -0.39291,0.14432 -0.57449,0.51929 -0.18158,0.37498 -0.0391,0.76304 0.15144,0.41232 0.51444,0.57628 0.36785,0.16217 0.78502,0.009 z"
         id="path61345" />
    </g>
    <ellipse
       style="fill:#e98000;fill-opacity:0;stroke:none;stroke-width:1.08076;stroke-miterlimit:4;stroke-dasharray:none;stroke-opacity:1"
       id="path41040"
       cx="-81.354492"
       cy="130.78206"
       rx="24.973457"
       ry="17.598253"
       transform="scale(-1,1)" />
    <g
       aria-label="2022"
       transform="matrix(0.31660763,-1.0768725,1.0847918,0.3173542,-70.598357,164.22501)"
       id="text44158"
       style="font-size:4.58611px;line-height:1.25;font-family:'Bernard MT Condensed';-inkscape-font-specification:'Bernard MT Condensed, ';fill:#d40000;stroke-width:0.264583"
       inkscape:transform-center-x="-0.5637629"
       inkscape:transform-center-y="0.019533191">
      <path
         d="m 57.048641,131.26757 0.09971,1.11745 q 0.0068,0.0758 0.06631,0.11324 0.06197,0.0394 0.22089,0.0567 0.06588,0.008 0.08854,0.0348 0.02489,0.027 0.03325,0.12068 0.01234,0.13829 -0.04788,0.14366 -0.02007,0.002 -0.04744,-0.003 -0.06122,-0.006 -0.291908,-0.0212 -0.251162,-0.0181 -0.439872,-0.0417 -0.18628,-0.0216 -0.205915,-0.0401 -0.01944,-0.0162 -0.027,-0.10101 l -0.157032,-1.75982 0.521925,-0.0466 q 0.109292,-0.01 0.293294,0.16267 0.09312,0.0861 0.549384,0.38713 0.456467,0.30325 0.735308,0.37954 0.27884,0.0763 0.729391,0.0361 0.376946,-0.0336 0.47744,-0.11679 0.102923,-0.0811 0.09078,-0.21719 -0.0092,-0.1026 -0.07232,-0.15541 -0.06317,-0.0528 -0.156846,-0.0445 -0.05353,0.005 -0.128371,0.0227 -0.09918,0.0223 -0.192855,0.0307 -0.202971,0.0181 -0.322852,-0.0656 -0.119683,-0.0815 -0.13242,-0.22425 -0.01353,-0.15167 0.09895,-0.25164 0.112483,-0.1 0.281997,-0.11509 0.352411,-0.0314 0.621246,0.20986 0.271065,0.2411 0.310472,0.68273 0.04001,0.44832 -0.217588,0.76132 -0.257393,0.31524 -0.707944,0.35544 -0.24981,0.0223 -0.488702,-0.0598 -0.236661,-0.0823 -0.431019,-0.24481 -0.191929,-0.16049 -0.490034,-0.47786 -0.405359,-0.43595 -0.660893,-0.62898 z"
         id="path61348" />
      <path
         d="m 60.333896,133.17305 q 0.07504,0.27664 -0.0864,0.57102 -0.161445,0.29438 -0.516641,0.51603 -0.353034,0.22107 -0.882528,0.36471 -0.881769,0.2392 -1.415356,0.0684 -0.533001,-0.16864 -0.64674,-0.58792 -0.107877,-0.39766 0.246387,-0.80235 0.354263,-0.4047 1.244678,-0.64625 0.886092,-0.24038 1.412425,-0.0792 0.526919,0.16333 0.644176,0.59557 z m -0.516331,0.28625 q 0.153446,-0.0416 0.201831,-0.0942 0.05113,-0.051 0.02885,-0.13312 -0.04339,-0.15993 -0.315696,-0.0861 l -2.502669,0.67892 q -0.211798,0.0575 -0.170758,0.20874 0.01993,0.0735 0.09433,0.0997 0.07499,0.0284 0.161435,0.005 z"
         id="path61350" />
      <path
         d="m 57.964341,135.41264 0.468633,1.01933 q 0.0318,0.0692 0.100441,0.0845 0.07161,0.0164 0.227124,-0.0206 0.06461,-0.0149 0.09509,0.003 0.03251,0.0171 0.07179,0.10255 0.05799,0.12614 0.0031,0.1514 -0.01831,0.008 -0.04553,0.0135 -0.05961,0.0151 -0.282105,0.0779 -0.242677,0.0672 -0.428385,0.10823 -0.182738,0.0421 -0.207433,0.0313 -0.02376,-0.009 -0.0593,-0.0861 l -0.738027,-1.60529 0.476094,-0.21888 q 0.0997,-0.0458 0.330862,0.0549 0.116601,0.0499 0.647388,0.1805 0.531722,0.13263 0.82,0.11101 0.288278,-0.0216 0.699265,-0.21058 0.343846,-0.15808 0.410638,-0.27012 0.06976,-0.11094 0.0127,-0.23505 -0.04303,-0.0936 -0.120248,-0.12217 -0.07722,-0.0286 -0.162672,0.0107 -0.04883,0.0224 -0.113329,0.0644 -0.08595,0.0543 -0.171397,0.0936 -0.185148,0.0851 -0.326164,0.0464 -0.140081,-0.0367 -0.199946,-0.16687 -0.06361,-0.13835 0.0088,-0.27024 0.07245,-0.1319 0.227081,-0.20299 0.321465,-0.14779 0.655646,-0.0106 0.336216,0.13625 0.521425,0.5391 0.188014,0.40895 0.05029,0.79021 -0.136791,0.38329 -0.547778,0.57224 -0.227874,0.10476 -0.480465,0.10752 -0.250556,0.002 -0.488155,-0.0861 -0.234629,-0.0868 -0.621895,-0.28588 -0.528071,-0.27479 -0.833535,-0.37096 z"
         id="path61352" />
      <path
         d="m 58.931268,137.32667 0.616231,0.9375 q 0.04182,0.0636 0.111972,0.0684 0.07325,0.005 0.221461,-0.0545 0.06165,-0.0245 0.09448,-0.0112 0.0347,0.012 0.08636,0.0906 0.07626,0.11602 0.02574,0.14923 -0.01684,0.0111 -0.04299,0.0202 -0.05667,0.0239 -0.267223,0.11938 -0.22985,0.10284 -0.407304,0.17125 -0.174353,0.069 -0.200393,0.062 -0.02481,-0.005 -0.07155,-0.0762 l -0.970473,-1.47642 0.437875,-0.28782 q 0.09169,-0.0603 0.335356,0.005 0.122768,0.0319 0.667139,0.0814 0.545601,0.0514 0.827373,-0.0133 0.281773,-0.0646 0.659767,-0.31308 0.316242,-0.20787 0.365473,-0.32866 0.05233,-0.12015 -0.0227,-0.2343 -0.05658,-0.0861 -0.137213,-0.10275 -0.08063,-0.0167 -0.159226,0.035 -0.04491,0.0295 -0.102383,0.0807 -0.07683,0.0666 -0.155419,0.11824 -0.170285,0.11193 -0.315508,0.0948 -0.143993,-0.0152 -0.222713,-0.13498 -0.08364,-0.12725 -0.03179,-0.26852 0.05185,-0.14127 0.194063,-0.23475 0.295659,-0.19434 0.646638,-0.10883 0.35285,0.0843 0.59639,0.45479 0.247231,0.37612 0.168252,0.77372 -0.07775,0.39948 -0.455743,0.64794 -0.209581,0.13776 -0.458901,0.17837 -0.247449,0.0394 -0.49555,-0.0119 -0.244999,-0.0507 -0.657741,-0.18936 -0.563316,-0.19247 -0.879749,-0.24173 z"
         id="path61354" />
    </g>
  </g>
</svg>
